<svg xmlns="http://www.w3.org/2000/svg" viewBox="0 0 36 24">
  <rect width="36" height="24" fill="#FFFFFF"/>
  <circle cx="18" cy="12" r="6" fill="#C60C30"/>
  <path d="M18 6 A6 6 0 0 1 18 12 A3 3 0 0 1 18 6" fill="#003478"/>
  <path d="M18 12 A6 6 0 0 1 18 18 A3 3 0 0 0 18 12" fill="#003478"/>
  <g stroke="#000" stroke-width="0.8">
    <line x1="6.5" y1="4.5" x2="10" y2="7.5"/>
    <line x1="7.5" y1="3.5" x2="11" y2="6.5"/>
    <line x1="8.5" y1="2.5" x2="12" y2="5.5"/>
    <line x1="26" y1="16.5" x2="29.5" y2="19.5"/>
    <line x1="25" y1="17.5" x2="28.5" y2="20.5"/>
    <line x1="24" y1="18.5" x2="27.5" y2="21.5"/>
    <line x1="26" y1="4.5" x2="29.5" y2="7.5"/>
    <line x1="25" y1="3.5" x2="28.5" y2="6.5"/>
    <line x1="24" y1="2.5" x2="27.5" y2="5.5"/>
    <line x1="6.5" y1="16.5" x2="10" y2="19.5"/>
    <line x1="7.5" y1="17.5" x2="11" y2="20.5"/>
    <line x1="8.5" y1="18.5" x2="12" y2="21.5"/>
  </g>
</svg>
